<svg xmlns="http://www.w3.org/2000/svg" width="760" height="566" viewBox="0 0 760 566">
<rect width="100%" height="100%" fill="white" />
<text x="40.0" y="34.0" font-size="18" font-family="Arial, sans-serif" text-anchor="start">Figure 2. Observed TSR positions are enriched near active-site cores</text>
<rect x="120.0" y="50.0" width="18.0" height="12.0" fill="#c8c8c8" stroke="none" />
<text x="144.0" y="60.0" font-size="11" font-family="Arial, sans-serif" text-anchor="start">random mean</text>
<rect x="270.0" y="50.0" width="18.0" height="12.0" fill="#3f6fb5" stroke="none" />
<text x="294.0" y="60.0" font-size="11" font-family="Arial, sans-serif" text-anchor="start">observed</text>
<line x1="120" y1="506" x2="680" y2="506" stroke="#333" />
<line x1="120.0" y1="502" x2="120.0" y2="510" stroke="#333" />
<text x="120.0" y="528.0" font-size="11" font-family="Arial, sans-serif" text-anchor="middle">0</text>
<line x1="260.0" y1="502" x2="260.0" y2="510" stroke="#333" />
<text x="260.0" y="528.0" font-size="11" font-family="Arial, sans-serif" text-anchor="middle">25</text>
<line x1="400.0" y1="502" x2="400.0" y2="510" stroke="#333" />
<text x="400.0" y="528.0" font-size="11" font-family="Arial, sans-serif" text-anchor="middle">50</text>
<line x1="540.0" y1="502" x2="540.0" y2="510" stroke="#333" />
<text x="540.0" y="528.0" font-size="11" font-family="Arial, sans-serif" text-anchor="middle">75</text>
<line x1="680.0" y1="502" x2="680.0" y2="510" stroke="#333" />
<text x="680.0" y="528.0" font-size="11" font-family="Arial, sans-serif" text-anchor="middle">100</text>
<text x="35.0" y="109.0" font-size="13" font-family="Arial, sans-serif" text-anchor="start">ACCase (all)</text>
<rect x="120.0" y="90.0" width="281.1" height="16.0" fill="#c8c8c8" stroke="none" />
<rect x="120.0" y="112.0" width="74.1" height="16.0" fill="#3f6fb5" stroke="none" />
<text x="690.0" y="124.0" font-size="11" font-family="Arial, sans-serif" text-anchor="start">p=0.0003</text>
<text x="35.0" y="167.0" font-size="13" font-family="Arial, sans-serif" text-anchor="start">ACCase (non-core)</text>
<rect x="120.0" y="148.0" width="280.8" height="16.0" fill="#c8c8c8" stroke="none" />
<rect x="120.0" y="170.0" width="100.8" height="16.0" fill="#3f6fb5" stroke="none" />
<text x="690.0" y="182.0" font-size="11" font-family="Arial, sans-serif" text-anchor="start">p=0.0102</text>
<text x="35.0" y="225.0" font-size="13" font-family="Arial, sans-serif" text-anchor="start">ALS (all)</text>
<rect x="120.0" y="206.0" width="280.2" height="16.0" fill="#c8c8c8" stroke="none" />
<rect x="120.0" y="228.0" width="26.0" height="16.0" fill="#44935f" stroke="none" />
<text x="690.0" y="240.0" font-size="11" font-family="Arial, sans-serif" text-anchor="start">p=0.0001</text>
<text x="35.0" y="283.0" font-size="13" font-family="Arial, sans-serif" text-anchor="start">EPSPS (all)</text>
<rect x="120.0" y="264.0" width="280.2" height="16.0" fill="#c8c8c8" stroke="none" />
<rect x="120.0" y="286.0" width="52.5" height="16.0" fill="#c28b2c" stroke="none" />
<text x="690.0" y="298.0" font-size="11" font-family="Arial, sans-serif" text-anchor="start">p=0.0147</text>
<text x="35.0" y="341.0" font-size="13" font-family="Arial, sans-serif" text-anchor="start">EPSPS (non-core)</text>
<rect x="120.0" y="322.0" width="280.7" height="16.0" fill="#c8c8c8" stroke="none" />
<rect x="120.0" y="344.0" width="72.1" height="16.0" fill="#c28b2c" stroke="none" />
<text x="690.0" y="356.0" font-size="11" font-family="Arial, sans-serif" text-anchor="start">p=0.1300</text>
<text x="35.0" y="399.0" font-size="13" font-family="Arial, sans-serif" text-anchor="start">PPO (all)</text>
<rect x="120.0" y="380.0" width="279.2" height="16.0" fill="#c8c8c8" stroke="none" />
<rect x="120.0" y="402.0" width="44.9" height="16.0" fill="#9b4d8b" stroke="none" />
<text x="690.0" y="414.0" font-size="11" font-family="Arial, sans-serif" text-anchor="start">p=0.0004</text>
<text x="35.0" y="457.0" font-size="13" font-family="Arial, sans-serif" text-anchor="start">PPO (non-core)</text>
<rect x="120.0" y="438.0" width="279.0" height="16.0" fill="#c8c8c8" stroke="none" />
<rect x="120.0" y="460.0" width="58.2" height="16.0" fill="#9b4d8b" stroke="none" />
<text x="690.0" y="472.0" font-size="11" font-family="Arial, sans-serif" text-anchor="start">p=0.0059</text>
<text x="260.0" y="552.0" font-size="12" font-family="Arial, sans-serif" text-anchor="start">Mean distance-to-core percentile (lower = closer)</text>
</svg>
