<svg xmlns="http://www.w3.org/2000/svg" width="990" height="176" viewBox="0 0 990 176">
<rect width="100%" height="100%" fill="white" />
<rect x="40.0" y="36.0" width="145.0" height="74.0" fill="#f3f5f7" stroke="#4c5967" />
<text x="112.0" y="66.0" font-size="13" font-family="Arial, sans-serif" text-anchor="middle">Curated TSR</text>
<text x="112.0" y="84.0" font-size="13" font-family="Arial, sans-serif" text-anchor="middle">source rows</text>
<line x1="185" y1="73" x2="225" y2="73" stroke="#4c5967" stroke-width="2" />
<polygon points="225,73 216,68 216,78" fill="#4c5967" />
<rect x="230.0" y="36.0" width="145.0" height="74.0" fill="#f3f5f7" stroke="#4c5967" />
<text x="302.0" y="66.0" font-size="13" font-family="Arial, sans-serif" text-anchor="middle">Real structures</text>
<text x="302.0" y="84.0" font-size="13" font-family="Arial, sans-serif" text-anchor="middle">+ active-site cores</text>
<line x1="375" y1="73" x2="415" y2="73" stroke="#4c5967" stroke-width="2" />
<polygon points="415,73 406,68 406,78" fill="#4c5967" />
<rect x="420.0" y="36.0" width="145.0" height="74.0" fill="#f3f5f7" stroke="#4c5967" />
<text x="492.0" y="66.0" font-size="13" font-family="Arial, sans-serif" text-anchor="middle">Distance percentile</text>
<text x="492.0" y="84.0" font-size="13" font-family="Arial, sans-serif" text-anchor="middle">+ RSA + conservation</text>
<line x1="565" y1="73" x2="605" y2="73" stroke="#4c5967" stroke-width="2" />
<polygon points="605,73 596,68 596,78" fill="#4c5967" />
<rect x="610.0" y="36.0" width="145.0" height="74.0" fill="#f3f5f7" stroke="#4c5967" />
<text x="682.0" y="66.0" font-size="13" font-family="Arial, sans-serif" text-anchor="middle">Permutation enrichment</text>
<text x="682.0" y="84.0" font-size="13" font-family="Arial, sans-serif" text-anchor="middle">+ mechanism screen</text>
<line x1="755" y1="73" x2="795" y2="73" stroke="#4c5967" stroke-width="2" />
<polygon points="795,73 786,68 786,78" fill="#4c5967" />
<rect x="800.0" y="36.0" width="145.0" height="74.0" fill="#f3f5f7" stroke="#4c5967" />
<text x="872.0" y="66.0" font-size="13" font-family="Arial, sans-serif" text-anchor="middle">Static resource</text>
<text x="872.0" y="84.0" font-size="13" font-family="Arial, sans-serif" text-anchor="middle">with dynamic caveats</text>
<text x="40.0" y="148.0" font-size="13" font-family="Arial, sans-serif" text-anchor="start">Scope boundary: no new MD pipeline; literature dynamics/free-energy studies are cited as mechanism context.</text>
</svg>
