<svg xmlns="http://www.w3.org/2000/svg" width="900" height="631" viewBox="0 0 900 631">
<rect width="100%" height="100%" fill="white" />
<text x="40.0" y="34.0" font-size="18" font-family="Arial, sans-serif" text-anchor="start">Figure 3. Unique mutation positions by structural proximity class</text>
<line x1="150" y1="576" x2="710" y2="576" stroke="#333" />
<line x1="150.0" y1="572" x2="150.0" y2="580" stroke="#333" />
<text x="150.0" y="596.0" font-size="11" font-family="Arial, sans-serif" text-anchor="middle">0</text>
<line x1="290.0" y1="572" x2="290.0" y2="580" stroke="#333" />
<text x="290.0" y="596.0" font-size="11" font-family="Arial, sans-serif" text-anchor="middle">10</text>
<line x1="430.0" y1="572" x2="430.0" y2="580" stroke="#333" />
<text x="430.0" y="596.0" font-size="11" font-family="Arial, sans-serif" text-anchor="middle">20</text>
<line x1="570.0" y1="572" x2="570.0" y2="580" stroke="#333" />
<text x="570.0" y="596.0" font-size="11" font-family="Arial, sans-serif" text-anchor="middle">30</text>
<line x1="710.0" y1="572" x2="710.0" y2="580" stroke="#333" />
<text x="710.0" y="596.0" font-size="11" font-family="Arial, sans-serif" text-anchor="middle">40</text>
<text x="28.0" y="95.0" font-size="11" font-family="Arial, sans-serif" text-anchor="start">ACCase A:143</text>
<circle cx="201.9" cy="90.0" r="6" fill="#7b5bc6" />
<text x="211.9" y="94.0" font-size="10" font-family="Arial, sans-serif" text-anchor="start">Ile1781Leu</text>
<text x="28.0" y="123.0" font-size="11" font-family="Arial, sans-serif" text-anchor="start">ACCase B:403</text>
<circle cx="201.9" cy="118.0" r="6" fill="#2f6fbb" />
<text x="211.9" y="122.0" font-size="10" font-family="Arial, sans-serif" text-anchor="start">Ile2041Asn</text>
<text x="28.0" y="151.0" font-size="11" font-family="Arial, sans-serif" text-anchor="start">ACCase B:440</text>
<circle cx="321.9" cy="146.0" r="6" fill="#2f9fa8" />
<text x="331.9" y="150.0" font-size="10" font-family="Arial, sans-serif" text-anchor="start">Asp2078Gly</text>
<text x="28.0" y="179.0" font-size="11" font-family="Arial, sans-serif" text-anchor="start">ACCase B:389</text>
<circle cx="324.4" cy="174.0" r="6" fill="#2f9fa8" />
<text x="334.4" y="178.0" font-size="10" font-family="Arial, sans-serif" text-anchor="start">Trp2027Cys</text>
<text x="28.0" y="207.0" font-size="11" font-family="Arial, sans-serif" text-anchor="start">ACCase B:458</text>
<circle cx="364.0" cy="202.0" r="6" fill="#46945f" />
<text x="374.0" y="206.0" font-size="10" font-family="Arial, sans-serif" text-anchor="start">Gly2096Ala</text>
<text x="28.0" y="235.0" font-size="11" font-family="Arial, sans-serif" text-anchor="start">ACCase B:450</text>
<circle cx="597.7" cy="230.0" r="6" fill="#7b5bc6" />
<text x="607.7" y="234.0" font-size="10" font-family="Arial, sans-serif" text-anchor="start">Cys2088Arg</text>
<text x="28.0" y="263.0" font-size="11" font-family="Arial, sans-serif" text-anchor="start">ALS 122</text>
<circle cx="214.9" cy="258.0" r="6" fill="#2f6fbb" />
<text x="224.9" y="262.0" font-size="10" font-family="Arial, sans-serif" text-anchor="start">Ala122Ser</text>
<text x="28.0" y="291.0" font-size="11" font-family="Arial, sans-serif" text-anchor="start">ALS 197</text>
<circle cx="214.9" cy="286.0" r="6" fill="#2f6fbb" />
<text x="224.9" y="290.0" font-size="10" font-family="Arial, sans-serif" text-anchor="start">Pro197Ala</text>
<text x="28.0" y="319.0" font-size="11" font-family="Arial, sans-serif" text-anchor="start">ALS 376</text>
<circle cx="214.9" cy="314.0" r="6" fill="#2f6fbb" />
<text x="224.9" y="318.0" font-size="10" font-family="Arial, sans-serif" text-anchor="start">Asp376Glu</text>
<text x="28.0" y="347.0" font-size="11" font-family="Arial, sans-serif" text-anchor="start">ALS 574</text>
<circle cx="214.9" cy="342.0" r="6" fill="#2f6fbb" />
<text x="224.9" y="346.0" font-size="10" font-family="Arial, sans-serif" text-anchor="start">Trp574Leu</text>
<text x="28.0" y="375.0" font-size="11" font-family="Arial, sans-serif" text-anchor="start">ALS 653</text>
<circle cx="214.9" cy="370.0" r="6" fill="#2f6fbb" />
<text x="224.9" y="374.0" font-size="10" font-family="Arial, sans-serif" text-anchor="start">Ser653Asn</text>
<text x="28.0" y="403.0" font-size="11" font-family="Arial, sans-serif" text-anchor="start">EPSPS 102</text>
<circle cx="232.2" cy="398.0" r="6" fill="#2f6fbb" />
<text x="242.2" y="402.0" font-size="10" font-family="Arial, sans-serif" text-anchor="start">Thr102Ile</text>
<text x="28.0" y="431.0" font-size="11" font-family="Arial, sans-serif" text-anchor="start">EPSPS 106</text>
<circle cx="330.1" cy="426.0" r="6" fill="#46945f" />
<text x="340.1" y="430.0" font-size="10" font-family="Arial, sans-serif" text-anchor="start">Pro106Ser</text>
<text x="28.0" y="459.0" font-size="11" font-family="Arial, sans-serif" text-anchor="start">PPO 98</text>
<circle cx="162.0" cy="454.0" r="6" fill="#2f6fbb" />
<text x="172.0" y="458.0" font-size="10" font-family="Arial, sans-serif" text-anchor="start">R98G_R98M</text>
<text x="28.0" y="487.0" font-size="11" font-family="Arial, sans-serif" text-anchor="start">PPO 370</text>
<circle cx="189.1" cy="482.0" r="6" fill="#46945f" />
<text x="199.1" y="486.0" font-size="10" font-family="Arial, sans-serif" text-anchor="start">G399A_R1;G399A_R2</text>
<text x="28.0" y="515.0" font-size="11" font-family="Arial, sans-serif" text-anchor="start">PPO 178</text>
<circle cx="264.4" cy="510.0" r="6" fill="#c77f2f" />
<text x="274.4" y="514.0" font-size="10" font-family="Arial, sans-serif" text-anchor="start">deltaG210_pair1;deltaG210_pair2</text>
<text x="28.0" y="543.0" font-size="11" font-family="Arial, sans-serif" text-anchor="start">PPO 332</text>
<circle cx="433.0" cy="538.0" r="6" fill="#777777" />
<text x="443.0" y="542.0" font-size="10" font-family="Arial, sans-serif" text-anchor="start">V361A</text>
<text x="290.0" y="618.0" font-size="12" font-family="Arial, sans-serif" text-anchor="start">Distance-to-core percentile</text>
</svg>
