<svg xmlns="http://www.w3.org/2000/svg" width="900" height="581" viewBox="0 0 900 581">
<rect width="100%" height="100%" fill="white" />
<line x1="150" y1="526" x2="710" y2="526" stroke="#333" />
<line x1="150.0" y1="522" x2="150.0" y2="530" stroke="#333" />
<text x="150.0" y="546.0" font-size="11" font-family="Arial, sans-serif" text-anchor="middle">0</text>
<line x1="290.0" y1="522" x2="290.0" y2="530" stroke="#333" />
<text x="290.0" y="546.0" font-size="11" font-family="Arial, sans-serif" text-anchor="middle">10</text>
<line x1="430.0" y1="522" x2="430.0" y2="530" stroke="#333" />
<text x="430.0" y="546.0" font-size="11" font-family="Arial, sans-serif" text-anchor="middle">20</text>
<line x1="570.0" y1="522" x2="570.0" y2="530" stroke="#333" />
<text x="570.0" y="546.0" font-size="11" font-family="Arial, sans-serif" text-anchor="middle">30</text>
<line x1="710.0" y1="522" x2="710.0" y2="530" stroke="#333" />
<text x="710.0" y="546.0" font-size="11" font-family="Arial, sans-serif" text-anchor="middle">40</text>
<text x="28.0" y="45.0" font-size="11" font-family="Arial, sans-serif" text-anchor="start">ACCase A:143</text>
<circle cx="201.9" cy="40.0" r="6" fill="#7b5bc6" />
<text x="211.9" y="44.0" font-size="10" font-family="Arial, sans-serif" text-anchor="start">Ile1781Leu</text>
<text x="28.0" y="73.0" font-size="11" font-family="Arial, sans-serif" text-anchor="start">ACCase B:403</text>
<circle cx="201.9" cy="68.0" r="6" fill="#2f6fbb" />
<text x="211.9" y="72.0" font-size="10" font-family="Arial, sans-serif" text-anchor="start">Ile2041Asn</text>
<text x="28.0" y="101.0" font-size="11" font-family="Arial, sans-serif" text-anchor="start">ACCase B:440</text>
<circle cx="321.9" cy="96.0" r="6" fill="#2f9fa8" />
<text x="331.9" y="100.0" font-size="10" font-family="Arial, sans-serif" text-anchor="start">Asp2078Gly</text>
<text x="28.0" y="129.0" font-size="11" font-family="Arial, sans-serif" text-anchor="start">ACCase B:389</text>
<circle cx="324.4" cy="124.0" r="6" fill="#2f9fa8" />
<text x="334.4" y="128.0" font-size="10" font-family="Arial, sans-serif" text-anchor="start">Trp2027Cys</text>
<text x="28.0" y="157.0" font-size="11" font-family="Arial, sans-serif" text-anchor="start">ACCase B:458</text>
<circle cx="364.0" cy="152.0" r="6" fill="#46945f" />
<text x="374.0" y="156.0" font-size="10" font-family="Arial, sans-serif" text-anchor="start">Gly2096Ala</text>
<text x="28.0" y="185.0" font-size="11" font-family="Arial, sans-serif" text-anchor="start">ACCase B:450</text>
<circle cx="597.7" cy="180.0" r="6" fill="#7b5bc6" />
<text x="607.7" y="184.0" font-size="10" font-family="Arial, sans-serif" text-anchor="start">Cys2088Arg</text>
<text x="28.0" y="213.0" font-size="11" font-family="Arial, sans-serif" text-anchor="start">ALS 122</text>
<circle cx="214.9" cy="208.0" r="6" fill="#2f6fbb" />
<text x="224.9" y="212.0" font-size="10" font-family="Arial, sans-serif" text-anchor="start">Ala122Ser</text>
<text x="28.0" y="241.0" font-size="11" font-family="Arial, sans-serif" text-anchor="start">ALS 197</text>
<circle cx="214.9" cy="236.0" r="6" fill="#2f6fbb" />
<text x="224.9" y="240.0" font-size="10" font-family="Arial, sans-serif" text-anchor="start">Pro197Ala</text>
<text x="28.0" y="269.0" font-size="11" font-family="Arial, sans-serif" text-anchor="start">ALS 376</text>
<circle cx="214.9" cy="264.0" r="6" fill="#2f6fbb" />
<text x="224.9" y="268.0" font-size="10" font-family="Arial, sans-serif" text-anchor="start">Asp376Glu</text>
<text x="28.0" y="297.0" font-size="11" font-family="Arial, sans-serif" text-anchor="start">ALS 574</text>
<circle cx="214.9" cy="292.0" r="6" fill="#2f6fbb" />
<text x="224.9" y="296.0" font-size="10" font-family="Arial, sans-serif" text-anchor="start">Trp574Leu</text>
<text x="28.0" y="325.0" font-size="11" font-family="Arial, sans-serif" text-anchor="start">ALS 653</text>
<circle cx="214.9" cy="320.0" r="6" fill="#2f6fbb" />
<text x="224.9" y="324.0" font-size="10" font-family="Arial, sans-serif" text-anchor="start">Ser653Asn</text>
<text x="28.0" y="353.0" font-size="11" font-family="Arial, sans-serif" text-anchor="start">EPSPS 102</text>
<circle cx="232.2" cy="348.0" r="6" fill="#2f6fbb" />
<text x="242.2" y="352.0" font-size="10" font-family="Arial, sans-serif" text-anchor="start">Thr102Ile</text>
<text x="28.0" y="381.0" font-size="11" font-family="Arial, sans-serif" text-anchor="start">EPSPS 106</text>
<circle cx="330.1" cy="376.0" r="6" fill="#46945f" />
<text x="340.1" y="380.0" font-size="10" font-family="Arial, sans-serif" text-anchor="start">Pro106Ser</text>
<text x="28.0" y="409.0" font-size="11" font-family="Arial, sans-serif" text-anchor="start">PPO 98</text>
<circle cx="162.0" cy="404.0" r="6" fill="#2f6fbb" />
<text x="172.0" y="408.0" font-size="10" font-family="Arial, sans-serif" text-anchor="start">R98G_R98M</text>
<text x="28.0" y="437.0" font-size="11" font-family="Arial, sans-serif" text-anchor="start">PPO 370</text>
<circle cx="189.1" cy="432.0" r="6" fill="#46945f" />
<text x="199.1" y="436.0" font-size="10" font-family="Arial, sans-serif" text-anchor="start">G399A_R1;G399A_R2</text>
<text x="28.0" y="465.0" font-size="11" font-family="Arial, sans-serif" text-anchor="start">PPO 178</text>
<circle cx="264.4" cy="460.0" r="6" fill="#c77f2f" />
<text x="274.4" y="464.0" font-size="10" font-family="Arial, sans-serif" text-anchor="start">deltaG210_pair1;deltaG210_pair2</text>
<text x="28.0" y="493.0" font-size="11" font-family="Arial, sans-serif" text-anchor="start">PPO 332</text>
<circle cx="433.0" cy="488.0" r="6" fill="#777777" />
<text x="443.0" y="492.0" font-size="10" font-family="Arial, sans-serif" text-anchor="start">V361A</text>
<text x="290.0" y="568.0" font-size="12" font-family="Arial, sans-serif" text-anchor="start">Distance-to-core percentile</text>
</svg>
