<svg xmlns="http://www.w3.org/2000/svg" width="900" height="466" viewBox="0 0 900 466">
<rect width="100%" height="100%" fill="white"/>
<rect x="150" y="36" width="98.57142857142856" height="352" fill="#eef3f8"/>
<text x="154" y="398" font-size="10" font-family="Arial" fill="#557">ligand-contact core zone</text>
<line x1="150" y1="88" x2="840" y2="88" stroke="#ccc"/>
<text x="138" y="92" font-size="14" font-family="Arial" text-anchor="end">PPO</text>
<circle cx="167" cy="88" r="7" fill="#2f6fbb"/>
<text x="167" y="74" font-size="10" font-family="Arial" text-anchor="middle">R98G_R98M</text>
<circle cx="205" cy="88" r="7" fill="#46945f"/>
<text x="205" y="104" font-size="10" font-family="Arial" text-anchor="middle">G399A_R1, G399A_R2</text>
<circle cx="311" cy="88" r="7" fill="#c77f2f"/>
<text x="311" y="74" font-size="10" font-family="Arial" text-anchor="middle">deltaG210_pair1, deltaG210_pair2</text>
<circle cx="549" cy="88" r="7" fill="#777777"/>
<text x="549" y="74" font-size="10" font-family="Arial" text-anchor="middle">V361A</text>
<line x1="150" y1="176" x2="840" y2="176" stroke="#ccc"/>
<text x="138" y="180" font-size="14" font-family="Arial" text-anchor="end">ALS</text>
<circle cx="241" cy="176" r="7" fill="#2f6fbb"/>
<text x="241" y="162" font-size="10" font-family="Arial" text-anchor="middle">Ala122Ser</text>
<circle cx="241" cy="176" r="7" fill="#2f6fbb"/>
<text x="241" y="192" font-size="10" font-family="Arial" text-anchor="middle">Pro197Ala</text>
<circle cx="241" cy="176" r="7" fill="#2f6fbb"/>
<text x="241" y="146" font-size="10" font-family="Arial" text-anchor="middle">Asp376Glu</text>
<circle cx="241" cy="176" r="7" fill="#2f6fbb"/>
<text x="241" y="208" font-size="10" font-family="Arial" text-anchor="middle">Trp574Leu</text>
<circle cx="241" cy="176" r="7" fill="#2f6fbb"/>
<text x="241" y="130" font-size="10" font-family="Arial" text-anchor="middle">Ser653Asn</text>
<line x1="150" y1="264" x2="840" y2="264" stroke="#ccc"/>
<text x="138" y="268" font-size="14" font-family="Arial" text-anchor="end">EPSPS</text>
<circle cx="266" cy="264" r="7" fill="#2f6fbb"/>
<text x="266" y="250" font-size="10" font-family="Arial" text-anchor="middle">Thr102Ile</text>
<circle cx="404" cy="264" r="7" fill="#46945f"/>
<text x="404" y="250" font-size="10" font-family="Arial" text-anchor="middle">Pro106Ser</text>
<line x1="150" y1="352" x2="840" y2="352" stroke="#ccc"/>
<text x="138" y="356" font-size="14" font-family="Arial" text-anchor="end">ACCase</text>
<circle cx="223" cy="352" r="7" fill="#7b5bc6"/>
<text x="223" y="338" font-size="10" font-family="Arial" text-anchor="middle">Ile1781Leu</text>
<circle cx="223" cy="352" r="7" fill="#2f6fbb"/>
<text x="223" y="368" font-size="10" font-family="Arial" text-anchor="middle">Ile2041Asn</text>
<circle cx="392" cy="352" r="7" fill="#2f9fa8"/>
<text x="392" y="338" font-size="10" font-family="Arial" text-anchor="middle">Asp2078Gly</text>
<circle cx="396" cy="352" r="7" fill="#2f9fa8"/>
<text x="396" y="368" font-size="10" font-family="Arial" text-anchor="middle">Trp2027Cys</text>
<circle cx="451" cy="352" r="7" fill="#46945f"/>
<text x="451" y="322" font-size="10" font-family="Arial" text-anchor="middle">Gly2096Ala</text>
<circle cx="780" cy="352" r="7" fill="#7b5bc6"/>
<text x="780" y="338" font-size="10" font-family="Arial" text-anchor="middle">Cys2088Arg</text>
<line x1="150" y1="414" x2="840" y2="414" stroke="#333"/>
<line x1="150" y1="414" x2="150" y2="419" stroke="#333"/>
<text x="150" y="432" font-size="10" font-family="Arial" text-anchor="middle">0</text>
<line x1="249" y1="414" x2="249" y2="419" stroke="#333"/>
<text x="249" y="432" font-size="10" font-family="Arial" text-anchor="middle">5</text>
<line x1="347" y1="414" x2="347" y2="419" stroke="#333"/>
<text x="347" y="432" font-size="10" font-family="Arial" text-anchor="middle">10</text>
<line x1="446" y1="414" x2="446" y2="419" stroke="#333"/>
<text x="446" y="432" font-size="10" font-family="Arial" text-anchor="middle">15</text>
<line x1="544" y1="414" x2="544" y2="419" stroke="#333"/>
<text x="544" y="432" font-size="10" font-family="Arial" text-anchor="middle">20</text>
<line x1="643" y1="414" x2="643" y2="419" stroke="#333"/>
<text x="643" y="432" font-size="10" font-family="Arial" text-anchor="middle">25</text>
<line x1="741" y1="414" x2="741" y2="419" stroke="#333"/>
<text x="741" y="432" font-size="10" font-family="Arial" text-anchor="middle">30</text>
<line x1="840" y1="414" x2="840" y2="419" stroke="#333"/>
<text x="840" y="432" font-size="10" font-family="Arial" text-anchor="middle">35</text>
<text x="495" y="448" font-size="12" font-family="Arial" text-anchor="middle">distance-to-core percentile (lower = closer to the ligand-contact core)</text>
<circle cx="150" cy="24" r="6" fill="#2f6fbb"/>
<text x="160" y="28" font-size="10" font-family="Arial">direct_core</text>
<circle cx="325" cy="24" r="6" fill="#46945f"/>
<text x="335" y="28" font-size="10" font-family="Arial">adjacent</text>
<circle cx="500" cy="24" r="6" fill="#2f9fa8"/>
<text x="510" y="28" font-size="10" font-family="Arial">second_shell_channel</text>
<circle cx="675" cy="24" r="6" fill="#7b5bc6"/>
<text x="685" y="28" font-size="10" font-family="Arial">interface_induced_fit</text>
</svg>
