<svg xmlns="http://www.w3.org/2000/svg" width="760" height="360" viewBox="0 0 760 360">
<rect width="100%" height="100%" fill="white" />
<text x="40.0" y="34.0" font-size="18" font-family="Arial, sans-serif" text-anchor="start">Figure 2. Observed TSR positions are enriched near active-site cores</text>
<line x1="120" y1="302" x2="680" y2="302" stroke="#333" />
<line x1="120.0" y1="298" x2="120.0" y2="306" stroke="#333" />
<text x="120.0" y="324.0" font-size="11" font-family="Arial, sans-serif" text-anchor="middle">0</text>
<line x1="260.0" y1="298" x2="260.0" y2="306" stroke="#333" />
<text x="260.0" y="324.0" font-size="11" font-family="Arial, sans-serif" text-anchor="middle">25</text>
<line x1="400.0" y1="298" x2="400.0" y2="306" stroke="#333" />
<text x="400.0" y="324.0" font-size="11" font-family="Arial, sans-serif" text-anchor="middle">50</text>
<line x1="540.0" y1="298" x2="540.0" y2="306" stroke="#333" />
<text x="540.0" y="324.0" font-size="11" font-family="Arial, sans-serif" text-anchor="middle">75</text>
<line x1="680.0" y1="298" x2="680.0" y2="306" stroke="#333" />
<text x="680.0" y="324.0" font-size="11" font-family="Arial, sans-serif" text-anchor="middle">100</text>
<text x="35.0" y="89.0" font-size="13" font-family="Arial, sans-serif" text-anchor="start">ACCase</text>
<rect x="120.0" y="70.0" width="278.9" height="16.0" fill="#c8c8c8" stroke="none" />
<rect x="120.0" y="92.0" width="59.8" height="16.0" fill="#3f6fb5" stroke="none" />
<text x="690.0" y="104.0" font-size="11" font-family="Arial, sans-serif" text-anchor="start">p=0.0002</text>
<text x="35.0" y="147.0" font-size="13" font-family="Arial, sans-serif" text-anchor="start">ALS</text>
<rect x="120.0" y="128.0" width="279.7" height="16.0" fill="#c8c8c8" stroke="none" />
<rect x="120.0" y="150.0" width="26.0" height="16.0" fill="#44935f" stroke="none" />
<text x="690.0" y="162.0" font-size="11" font-family="Arial, sans-serif" text-anchor="start">p=0.0022</text>
<text x="35.0" y="205.0" font-size="13" font-family="Arial, sans-serif" text-anchor="start">EPSPS</text>
<rect x="120.0" y="186.0" width="282.0" height="16.0" fill="#c8c8c8" stroke="none" />
<rect x="120.0" y="208.0" width="72.1" height="16.0" fill="#c28b2c" stroke="none" />
<text x="690.0" y="220.0" font-size="11" font-family="Arial, sans-serif" text-anchor="start">p=0.1319</text>
<text x="35.0" y="263.0" font-size="13" font-family="Arial, sans-serif" text-anchor="start">PPO</text>
<rect x="120.0" y="244.0" width="281.9" height="16.0" fill="#c8c8c8" stroke="none" />
<rect x="120.0" y="266.0" width="44.9" height="16.0" fill="#9b4d8b" stroke="none" />
<text x="690.0" y="278.0" font-size="11" font-family="Arial, sans-serif" text-anchor="start">p=0.0004</text>
<text x="260.0" y="350.0" font-size="12" font-family="Arial, sans-serif" text-anchor="start">Mean distance-to-core percentile (lower = closer)</text>
<rect x="520.0" y="48.0" width="18.0" height="12.0" fill="#c8c8c8" stroke="none" />
<text x="544.0" y="58.0" font-size="11" font-family="Arial, sans-serif" text-anchor="start">random mean</text>
<rect x="620.0" y="48.0" width="18.0" height="12.0" fill="#3f6fb5" stroke="none" />
<text x="644.0" y="58.0" font-size="11" font-family="Arial, sans-serif" text-anchor="start">observed</text>
</svg>
