<svg xmlns="http://www.w3.org/2000/svg" width="760" height="524" viewBox="0 0 760 524">
<rect width="100%" height="100%" fill="white" />
<rect x="120.0" y="16.0" width="18.0" height="12.0" fill="#c8c8c8" stroke="none" />
<text x="144.0" y="26.0" font-size="11" font-family="Arial, sans-serif" text-anchor="start">random mean</text>
<rect x="270.0" y="16.0" width="18.0" height="12.0" fill="#3f6fb5" stroke="none" />
<text x="294.0" y="26.0" font-size="11" font-family="Arial, sans-serif" text-anchor="start">observed</text>
<line x1="120" y1="464" x2="680" y2="464" stroke="#333" />
<line x1="120.0" y1="460" x2="120.0" y2="468" stroke="#333" />
<text x="120.0" y="486.0" font-size="11" font-family="Arial, sans-serif" text-anchor="middle">0</text>
<line x1="260.0" y1="460" x2="260.0" y2="468" stroke="#333" />
<text x="260.0" y="486.0" font-size="11" font-family="Arial, sans-serif" text-anchor="middle">25</text>
<line x1="400.0" y1="460" x2="400.0" y2="468" stroke="#333" />
<text x="400.0" y="486.0" font-size="11" font-family="Arial, sans-serif" text-anchor="middle">50</text>
<line x1="540.0" y1="460" x2="540.0" y2="468" stroke="#333" />
<text x="540.0" y="486.0" font-size="11" font-family="Arial, sans-serif" text-anchor="middle">75</text>
<line x1="680.0" y1="460" x2="680.0" y2="468" stroke="#333" />
<text x="680.0" y="486.0" font-size="11" font-family="Arial, sans-serif" text-anchor="middle">100</text>
<text x="35.0" y="67.0" font-size="13" font-family="Arial, sans-serif" text-anchor="start">ACCase (all)</text>
<rect x="120.0" y="48.0" width="281.1" height="16.0" fill="#c8c8c8" stroke="none" />
<rect x="120.0" y="70.0" width="74.1" height="16.0" fill="#3f6fb5" stroke="none" />
<text x="690.0" y="82.0" font-size="11" font-family="Arial, sans-serif" text-anchor="start">p=0.0003</text>
<text x="35.0" y="125.0" font-size="13" font-family="Arial, sans-serif" text-anchor="start">ACCase (non-core)</text>
<rect x="120.0" y="106.0" width="280.8" height="16.0" fill="#c8c8c8" stroke="none" />
<rect x="120.0" y="128.0" width="100.8" height="16.0" fill="#3f6fb5" stroke="none" />
<text x="690.0" y="140.0" font-size="11" font-family="Arial, sans-serif" text-anchor="start">p=0.0102</text>
<text x="35.0" y="183.0" font-size="13" font-family="Arial, sans-serif" text-anchor="start">ALS (all)</text>
<rect x="120.0" y="164.0" width="280.2" height="16.0" fill="#c8c8c8" stroke="none" />
<rect x="120.0" y="186.0" width="26.0" height="16.0" fill="#44935f" stroke="none" />
<text x="690.0" y="198.0" font-size="11" font-family="Arial, sans-serif" text-anchor="start">p=0.0001</text>
<text x="35.0" y="241.0" font-size="13" font-family="Arial, sans-serif" text-anchor="start">EPSPS (all)</text>
<rect x="120.0" y="222.0" width="280.2" height="16.0" fill="#c8c8c8" stroke="none" />
<rect x="120.0" y="244.0" width="52.5" height="16.0" fill="#c28b2c" stroke="none" />
<text x="690.0" y="256.0" font-size="11" font-family="Arial, sans-serif" text-anchor="start">p=0.0147</text>
<text x="35.0" y="299.0" font-size="13" font-family="Arial, sans-serif" text-anchor="start">EPSPS (non-core)</text>
<rect x="120.0" y="280.0" width="280.7" height="16.0" fill="#c8c8c8" stroke="none" />
<rect x="120.0" y="302.0" width="72.1" height="16.0" fill="#c28b2c" stroke="none" />
<text x="690.0" y="314.0" font-size="11" font-family="Arial, sans-serif" text-anchor="start">p=0.1300</text>
<text x="35.0" y="357.0" font-size="13" font-family="Arial, sans-serif" text-anchor="start">PPO (all)</text>
<rect x="120.0" y="338.0" width="279.2" height="16.0" fill="#c8c8c8" stroke="none" />
<rect x="120.0" y="360.0" width="44.9" height="16.0" fill="#9b4d8b" stroke="none" />
<text x="690.0" y="372.0" font-size="11" font-family="Arial, sans-serif" text-anchor="start">p=0.0004</text>
<text x="35.0" y="415.0" font-size="13" font-family="Arial, sans-serif" text-anchor="start">PPO (non-core)</text>
<rect x="120.0" y="396.0" width="279.0" height="16.0" fill="#c8c8c8" stroke="none" />
<rect x="120.0" y="418.0" width="58.2" height="16.0" fill="#9b4d8b" stroke="none" />
<text x="690.0" y="430.0" font-size="11" font-family="Arial, sans-serif" text-anchor="start">p=0.0059</text>
<text x="260.0" y="510.0" font-size="12" font-family="Arial, sans-serif" text-anchor="start">Mean distance-to-core percentile (lower = closer)</text>
</svg>
