<svg xmlns="http://www.w3.org/2000/svg" width="990" height="230" viewBox="0 0 990 230">
<rect width="100%" height="100%" fill="white" />
<text x="40.0" y="38.0" font-size="18" font-family="Arial, sans-serif" text-anchor="start">Figure 1. Static structural-bioinformatics workflow</text>
<rect x="40.0" y="82.0" width="145.0" height="74.0" fill="#f3f5f7" stroke="#4c5967" />
<text x="112.0" y="112.0" font-size="13" font-family="Arial, sans-serif" text-anchor="middle">Curated TSR</text>
<text x="112.0" y="130.0" font-size="13" font-family="Arial, sans-serif" text-anchor="middle">source rows</text>
<line x1="185" y1="119" x2="225" y2="119" stroke="#4c5967" stroke-width="2" />
<polygon points="225,119 216,114 216,124" fill="#4c5967" />
<rect x="230.0" y="82.0" width="145.0" height="74.0" fill="#f3f5f7" stroke="#4c5967" />
<text x="302.0" y="112.0" font-size="13" font-family="Arial, sans-serif" text-anchor="middle">Real structures</text>
<text x="302.0" y="130.0" font-size="13" font-family="Arial, sans-serif" text-anchor="middle">+ active-site cores</text>
<line x1="375" y1="119" x2="415" y2="119" stroke="#4c5967" stroke-width="2" />
<polygon points="415,119 406,114 406,124" fill="#4c5967" />
<rect x="420.0" y="82.0" width="145.0" height="74.0" fill="#f3f5f7" stroke="#4c5967" />
<text x="492.0" y="112.0" font-size="13" font-family="Arial, sans-serif" text-anchor="middle">Distance percentile</text>
<text x="492.0" y="130.0" font-size="13" font-family="Arial, sans-serif" text-anchor="middle">+ RSA + conservation</text>
<line x1="565" y1="119" x2="605" y2="119" stroke="#4c5967" stroke-width="2" />
<polygon points="605,119 596,114 596,124" fill="#4c5967" />
<rect x="610.0" y="82.0" width="145.0" height="74.0" fill="#f3f5f7" stroke="#4c5967" />
<text x="682.0" y="112.0" font-size="13" font-family="Arial, sans-serif" text-anchor="middle">Permutation enrichment</text>
<text x="682.0" y="130.0" font-size="13" font-family="Arial, sans-serif" text-anchor="middle">+ mechanism screen</text>
<line x1="755" y1="119" x2="795" y2="119" stroke="#4c5967" stroke-width="2" />
<polygon points="795,119 786,114 786,124" fill="#4c5967" />
<rect x="800.0" y="82.0" width="145.0" height="74.0" fill="#f3f5f7" stroke="#4c5967" />
<text x="872.0" y="112.0" font-size="13" font-family="Arial, sans-serif" text-anchor="middle">Static resource</text>
<text x="872.0" y="130.0" font-size="13" font-family="Arial, sans-serif" text-anchor="middle">with dynamic caveats</text>
<text x="40.0" y="190.0" font-size="13" font-family="Arial, sans-serif" text-anchor="start">Scope boundary: no new MD pipeline; literature dynamics/free-energy studies are cited as mechanism context.</text>
</svg>
