<svg xmlns="http://www.w3.org/2000/svg" width="760" height="460" viewBox="0 0 760 460">
<rect width="100%" height="100%" fill="white" />
<text x="40.0" y="30.0" font-size="18" font-family="Arial, sans-serif" text-anchor="start">Figure 4. Distance percentile, RSA, and conservation annotations</text>
<rect x="85" y="58" width="590" height="320" fill="none" stroke="#333" />
<line x1="85.0" y1="378" x2="85.0" y2="384" stroke="#333" />
<text x="85.0" y="400.0" font-size="11" font-family="Arial, sans-serif" text-anchor="middle">0</text>
<line x1="281.7" y1="378" x2="281.7" y2="384" stroke="#333" />
<text x="281.7" y="400.0" font-size="11" font-family="Arial, sans-serif" text-anchor="middle">10</text>
<line x1="478.3" y1="378" x2="478.3" y2="384" stroke="#333" />
<text x="478.3" y="400.0" font-size="11" font-family="Arial, sans-serif" text-anchor="middle">20</text>
<line x1="675.0" y1="378" x2="675.0" y2="384" stroke="#333" />
<text x="675.0" y="400.0" font-size="11" font-family="Arial, sans-serif" text-anchor="middle">30</text>
<line x1="79" y1="378.0" x2="85" y2="378.0" stroke="#333" />
<text x="73.0" y="382.0" font-size="11" font-family="Arial, sans-serif" text-anchor="end">0.0</text>
<line x1="79" y1="271.3" x2="85" y2="271.3" stroke="#333" />
<text x="73.0" y="275.3" font-size="11" font-family="Arial, sans-serif" text-anchor="end">0.1</text>
<line x1="79" y1="164.7" x2="85" y2="164.7" stroke="#333" />
<text x="73.0" y="168.7" font-size="11" font-family="Arial, sans-serif" text-anchor="end">0.2</text>
<line x1="79" y1="58.0" x2="85" y2="58.0" stroke="#333" />
<text x="73.0" y="62.0" font-size="11" font-family="Arial, sans-serif" text-anchor="end">0.3</text>
<circle cx="147.2" cy="367.9" r="8.2" fill="#2f6fbb" opacity="0.82" />
<circle cx="147.2" cy="378.0" r="8.5" fill="#7b5bc6" opacity="0.82" />
<circle cx="255.3" cy="375.4" r="9.0" fill="#2f9fa8" opacity="0.82" />
<circle cx="289.4" cy="365.9" r="9.0" fill="#2f9fa8" opacity="0.82" />
<circle cx="336.8" cy="366.8" r="9.0" fill="#46945f" opacity="0.82" />
<circle cx="594.4" cy="374.7" r="8.5" fill="#7b5bc6" opacity="0.82" />
<circle cx="176.2" cy="306.1" r="9.0" fill="#2f6fbb" opacity="0.82" />
<circle cx="176.2" cy="153.9" r="9.0" fill="#2f6fbb" opacity="0.82" />
<circle cx="338.0" cy="282.0" r="9.0" fill="#46945f" opacity="0.82" />
<circle cx="101.9" cy="148.5" r="9.0" fill="#2f6fbb" opacity="0.82" />
<circle cx="140.0" cy="378.0" r="9.0" fill="#46945f" opacity="0.82" />
<circle cx="245.7" cy="372.6" r="7.8" fill="#c77f2f" opacity="0.82" />
<circle cx="482.6" cy="378.0" r="6.9" fill="#777777" opacity="0.82" />
<text x="245.0" y="422.0" font-size="12" font-family="Arial, sans-serif" text-anchor="start">Distance-to-core percentile</text>
<text x="18.0" y="228.0" font-size="12" font-family="Arial, sans-serif" text-anchor="start">RSA</text>
<text x="95.0" y="448.0" font-size="11" font-family="Arial, sans-serif" text-anchor="start">Point size scales with normalized conservation; colors show mechanism annotation.</text>
</svg>
