<svg xmlns="http://www.w3.org/2000/svg" width="850" height="500" viewBox="0 0 850 500">
<rect width="100%" height="100%" fill="white" />
<text x="40.0" y="34.0" font-size="18" font-family="Arial, sans-serif" text-anchor="start">Figure 3. Unique mutation positions by structural proximity class</text>
<line x1="130" y1="445" x2="750" y2="445" stroke="#333" />
<line x1="130.0" y1="441" x2="130.0" y2="449" stroke="#333" />
<text x="130.0" y="466.0" font-size="11" font-family="Arial, sans-serif" text-anchor="middle">0</text>
<line x1="336.7" y1="441" x2="336.7" y2="449" stroke="#333" />
<text x="336.7" y="466.0" font-size="11" font-family="Arial, sans-serif" text-anchor="middle">10</text>
<line x1="543.3" y1="441" x2="543.3" y2="449" stroke="#333" />
<text x="543.3" y="466.0" font-size="11" font-family="Arial, sans-serif" text-anchor="middle">20</text>
<line x1="750.0" y1="441" x2="750.0" y2="449" stroke="#333" />
<text x="750.0" y="466.0" font-size="11" font-family="Arial, sans-serif" text-anchor="middle">30</text>
<text x="28.0" y="75.0" font-size="11" font-family="Arial, sans-serif" text-anchor="start">ACCase A:143</text>
<circle cx="206.7" cy="70.0" r="6" fill="#7b5bc6" />
<text x="216.7" y="74.0" font-size="10" font-family="Arial, sans-serif" text-anchor="start">Ile1781Leu</text>
<text x="28.0" y="103.0" font-size="11" font-family="Arial, sans-serif" text-anchor="start">ACCase B:403</text>
<circle cx="206.7" cy="98.0" r="6" fill="#2f6fbb" />
<text x="216.7" y="102.0" font-size="10" font-family="Arial, sans-serif" text-anchor="start">Ile2041Asn</text>
<text x="28.0" y="131.0" font-size="11" font-family="Arial, sans-serif" text-anchor="start">ACCase B:440</text>
<circle cx="383.8" cy="126.0" r="6" fill="#2f9fa8" />
<text x="393.8" y="130.0" font-size="10" font-family="Arial, sans-serif" text-anchor="start">Asp2078Gly</text>
<text x="28.0" y="159.0" font-size="11" font-family="Arial, sans-serif" text-anchor="start">ACCase B:389</text>
<circle cx="387.4" cy="154.0" r="6" fill="#2f9fa8" />
<text x="397.4" y="158.0" font-size="10" font-family="Arial, sans-serif" text-anchor="start">Trp2027Cys</text>
<text x="28.0" y="187.0" font-size="11" font-family="Arial, sans-serif" text-anchor="start">ACCase B:458</text>
<circle cx="445.8" cy="182.0" r="6" fill="#46945f" />
<text x="455.8" y="186.0" font-size="10" font-family="Arial, sans-serif" text-anchor="start">Gly2096Ala</text>
<text x="28.0" y="215.0" font-size="11" font-family="Arial, sans-serif" text-anchor="start">ACCase B:450</text>
<circle cx="750.0" cy="210.0" r="6" fill="#7b5bc6" />
<text x="760.0" y="214.0" font-size="10" font-family="Arial, sans-serif" text-anchor="start">Cys2088Arg</text>
<text x="28.0" y="243.0" font-size="11" font-family="Arial, sans-serif" text-anchor="start">ALS 122</text>
<circle cx="225.9" cy="238.0" r="6" fill="#2f6fbb" />
<text x="235.9" y="242.0" font-size="10" font-family="Arial, sans-serif" text-anchor="start">Ala122Ser</text>
<text x="28.0" y="271.0" font-size="11" font-family="Arial, sans-serif" text-anchor="start">ALS 197</text>
<circle cx="225.9" cy="266.0" r="6" fill="#2f6fbb" />
<text x="235.9" y="270.0" font-size="10" font-family="Arial, sans-serif" text-anchor="start">Pro197Ala</text>
<text x="28.0" y="299.0" font-size="11" font-family="Arial, sans-serif" text-anchor="start">ALS 574</text>
<circle cx="225.9" cy="294.0" r="6" fill="#2f6fbb" />
<text x="235.9" y="298.0" font-size="10" font-family="Arial, sans-serif" text-anchor="start">Trp574Leu</text>
<text x="28.0" y="327.0" font-size="11" font-family="Arial, sans-serif" text-anchor="start">ALS 653</text>
<circle cx="225.9" cy="322.0" r="6" fill="#2f6fbb" />
<text x="235.9" y="326.0" font-size="10" font-family="Arial, sans-serif" text-anchor="start">Ser653Asn</text>
<text x="28.0" y="355.0" font-size="11" font-family="Arial, sans-serif" text-anchor="start">EPSPS 106</text>
<circle cx="395.9" cy="350.0" r="6" fill="#46945f" />
<text x="405.9" y="354.0" font-size="10" font-family="Arial, sans-serif" text-anchor="start">Pro106Ser</text>
<text x="28.0" y="383.0" font-size="11" font-family="Arial, sans-serif" text-anchor="start">PPO 98</text>
<circle cx="147.8" cy="378.0" r="6" fill="#2f6fbb" />
<text x="157.8" y="382.0" font-size="10" font-family="Arial, sans-serif" text-anchor="start">R98G_R98M</text>
<text x="28.0" y="411.0" font-size="11" font-family="Arial, sans-serif" text-anchor="start">PPO 370</text>
<circle cx="187.8" cy="406.0" r="6" fill="#46945f" />
<text x="197.8" y="410.0" font-size="10" font-family="Arial, sans-serif" text-anchor="start">G399A_R1;G399A_R2</text>
<text x="28.0" y="439.0" font-size="11" font-family="Arial, sans-serif" text-anchor="start">PPO 178</text>
<circle cx="298.9" cy="434.0" r="6" fill="#c77f2f" />
<text x="308.9" y="438.0" font-size="10" font-family="Arial, sans-serif" text-anchor="start">deltaG210_pair1;deltaG210_pair2</text>
<text x="28.0" y="467.0" font-size="11" font-family="Arial, sans-serif" text-anchor="start">PPO 332</text>
<circle cx="547.8" cy="462.0" r="6" fill="#777777" />
<text x="557.8" y="466.0" font-size="10" font-family="Arial, sans-serif" text-anchor="start">V361A</text>
<text x="290.0" y="492.0" font-size="12" font-family="Arial, sans-serif" text-anchor="start">Distance-to-core percentile</text>
</svg>
