<svg xmlns="http://www.w3.org/2000/svg" width="900" height="470" viewBox="0 0 900 470">
<rect width="100%" height="100%" fill="white"/>
<text x="40" y="34" font-size="18" font-family="Arial">Figure 5. Resistance-zone map: accepted positions by distance-to-core percentile</text>
<rect x="150" y="62" width="115.0" height="352" fill="#eef3f8"/>
<text x="154" y="424" font-size="10" font-family="Arial" fill="#557">ligand-contact core zone</text>
<line x1="150" y1="114" x2="840" y2="114" stroke="#ccc"/>
<text x="138" y="118" font-size="14" font-family="Arial" text-anchor="end">PPO</text>
<circle cx="170" cy="114" r="7" fill="#2f6fbb"/>
<text x="170" y="100" font-size="10" font-family="Arial" text-anchor="middle">R98G_R98M</text>
<circle cx="214" cy="114" r="7" fill="#46945f"/>
<text x="214" y="130" font-size="10" font-family="Arial" text-anchor="middle">G399A_R1, G399A_R2</text>
<circle cx="338" cy="114" r="7" fill="#c77f2f"/>
<text x="338" y="100" font-size="10" font-family="Arial" text-anchor="middle">deltaG210_pair1, deltaG210_pair2</text>
<circle cx="615" cy="114" r="7" fill="#777777"/>
<text x="615" y="100" font-size="10" font-family="Arial" text-anchor="middle">V361A</text>
<line x1="150" y1="202" x2="840" y2="202" stroke="#ccc"/>
<text x="138" y="206" font-size="14" font-family="Arial" text-anchor="end">ALS</text>
<circle cx="257" cy="202" r="7" fill="#2f6fbb"/>
<text x="257" y="188" font-size="10" font-family="Arial" text-anchor="middle">Ala122Ser</text>
<circle cx="257" cy="202" r="7" fill="#2f6fbb"/>
<text x="257" y="218" font-size="10" font-family="Arial" text-anchor="middle">Pro197Ala</text>
<circle cx="257" cy="202" r="7" fill="#2f6fbb"/>
<text x="257" y="188" font-size="10" font-family="Arial" text-anchor="middle">Trp574Leu</text>
<circle cx="257" cy="202" r="7" fill="#2f6fbb"/>
<text x="257" y="218" font-size="10" font-family="Arial" text-anchor="middle">Ser653Asn</text>
<line x1="150" y1="290" x2="840" y2="290" stroke="#ccc"/>
<text x="138" y="294" font-size="14" font-family="Arial" text-anchor="end">EPSPS</text>
<circle cx="446" cy="290" r="7" fill="#46945f"/>
<text x="446" y="276" font-size="10" font-family="Arial" text-anchor="middle">Pro106Ser</text>
<line x1="150" y1="378" x2="840" y2="378" stroke="#ccc"/>
<text x="138" y="382" font-size="14" font-family="Arial" text-anchor="end">ACCase</text>
<circle cx="223" cy="378" r="7" fill="#2f6fbb"/>
<text x="223" y="364" font-size="10" font-family="Arial" text-anchor="middle">Ile2041Asn</text>
<circle cx="223" cy="378" r="7" fill="#7b5bc6"/>
<text x="223" y="394" font-size="10" font-family="Arial" text-anchor="middle">Ile1781Leu</text>
<circle cx="349" cy="378" r="7" fill="#2f9fa8"/>
<text x="349" y="364" font-size="10" font-family="Arial" text-anchor="middle">Asp2078Gly</text>
<circle cx="389" cy="378" r="7" fill="#2f9fa8"/>
<text x="389" y="394" font-size="10" font-family="Arial" text-anchor="middle">Trp2027Cys</text>
<circle cx="444" cy="378" r="7" fill="#46945f"/>
<text x="444" y="394" font-size="10" font-family="Arial" text-anchor="middle">Gly2096Ala</text>
<circle cx="746" cy="378" r="7" fill="#7b5bc6"/>
<text x="746" y="364" font-size="10" font-family="Arial" text-anchor="middle">Cys2088Arg</text>
<line x1="150" y1="440" x2="840" y2="440" stroke="#333"/>
<line x1="150" y1="440" x2="150" y2="445" stroke="#333"/>
<text x="150" y="458" font-size="10" font-family="Arial" text-anchor="middle">0</text>
<line x1="265" y1="440" x2="265" y2="445" stroke="#333"/>
<text x="265" y="458" font-size="10" font-family="Arial" text-anchor="middle">5</text>
<line x1="380" y1="440" x2="380" y2="445" stroke="#333"/>
<text x="380" y="458" font-size="10" font-family="Arial" text-anchor="middle">10</text>
<line x1="495" y1="440" x2="495" y2="445" stroke="#333"/>
<text x="495" y="458" font-size="10" font-family="Arial" text-anchor="middle">15</text>
<line x1="610" y1="440" x2="610" y2="445" stroke="#333"/>
<text x="610" y="458" font-size="10" font-family="Arial" text-anchor="middle">20</text>
<line x1="725" y1="440" x2="725" y2="445" stroke="#333"/>
<text x="725" y="458" font-size="10" font-family="Arial" text-anchor="middle">25</text>
<line x1="840" y1="440" x2="840" y2="445" stroke="#333"/>
<text x="840" y="458" font-size="10" font-family="Arial" text-anchor="middle">30</text>
<text x="495" y="474" font-size="12" font-family="Arial" text-anchor="middle">distance-to-core percentile (lower = closer to the ligand-contact core)</text>
<circle cx="150" cy="52" r="6" fill="#2f6fbb"/>
<text x="160" y="56" font-size="10" font-family="Arial">direct_core</text>
<circle cx="325" cy="52" r="6" fill="#46945f"/>
<text x="335" y="56" font-size="10" font-family="Arial">adjacent</text>
<circle cx="500" cy="52" r="6" fill="#2f9fa8"/>
<text x="510" y="56" font-size="10" font-family="Arial">second_shell_channel</text>
<circle cx="675" cy="52" r="6" fill="#7b5bc6"/>
<text x="685" y="56" font-size="10" font-family="Arial">interface_induced_fit</text>
</svg>
